<svg viewBox="0 0 200 200" xmlns="http://www.w3.org/2000/svg">
  <defs>
    <linearGradient id="femaleGradient" x1="0%" y1="0%" x2="0%" y2="100%">
      <stop offset="0%" style="stop-color:#E91E63;stop-opacity:1" />
      <stop offset="100%" style="stop-color:#C2185B;stop-opacity:1" />
    </linearGradient>
  </defs>
  <circle cx="100" cy="100" r="100" fill="url(#femaleGradient)"/>
  <circle cx="100" cy="75" r="35" fill="#FCD5B5"/>
  <ellipse cx="100" cy="55" rx="42" ry="35" fill="#5D4037"/>
  <path d="M 58 60 Q 58 85 65 95 L 70 75 Q 75 55 100 50 Q 125 55 130 75 L 135 95 Q 142 85 142 60" fill="#5D4037"/>
  <circle cx="100" cy="80" r="32" fill="#FCD5B5"/>
  <circle cx="88" cy="75" r="3" fill="#2C1810"/>
  <circle cx="112" cy="75" r="3" fill="#2C1810"/>
  <path d="M 85 72 L 83 69" stroke="#2C1810" stroke-width="1" stroke-linecap="round"/>
  <path d="M 88 71 L 88 68" stroke="#2C1810" stroke-width="1" stroke-linecap="round"/>
  <path d="M 91 72 L 93 69" stroke="#2C1810" stroke-width="1" stroke-linecap="round"/>
  <path d="M 109 72 L 107 69" stroke="#2C1810" stroke-width="1" stroke-linecap="round"/>
  <path d="M 112 71 L 112 68" stroke="#2C1810" stroke-width="1" stroke-linecap="round"/>
  <path d="M 115 72 L 117 69" stroke="#2C1810" stroke-width="1" stroke-linecap="round"/>
  <path d="M 82 68 Q 88 66 94 68" stroke="#5D4037" stroke-width="2" fill="none" stroke-linecap="round"/>
  <path d="M 106 68 Q 112 66 118 68" stroke="#5D4037" stroke-width="2" fill="none" stroke-linecap="round"/>
  <path d="M 100 80 L 98 88 L 102 88" stroke="#D4A574" stroke-width="1.5" fill="none" stroke-linecap="round"/>
  <path d="M 92 95 Q 100 99 108 95" stroke="#C2185B" stroke-width="2.5" fill="none" stroke-linecap="round"/>
  <path d="M 92 95 Q 100 97 108 95" stroke="#E91E63" stroke-width="1.5" fill="none" stroke-linecap="round"/>
  <ellipse cx="82" cy="85" rx="8" ry="5" fill="#FFB6C1" opacity="0.4"/>
  <ellipse cx="118" cy="85" rx="8" ry="5" fill="#FFB6C1" opacity="0.4"/>
  <rect x="90" y="105" width="20" height="15" fill="#FCD5B5"/>
  <path d="M 60 200 L 70 120 Q 100 115 130 120 L 140 200 Z" fill="#E91E63"/>
  <ellipse cx="100" cy="118" rx="15" ry="3" fill="none" stroke="#FFD700" stroke-width="2"/>
  <circle cx="100" cy="122" r="3" fill="#FFD700"/>
</svg>
