<svg viewBox="0 0 200 200" xmlns="http://www.w3.org/2000/svg">
  <defs>
    <linearGradient id="maleGradient" x1="0%" y1="0%" x2="0%" y2="100%">
      <stop offset="0%" style="stop-color:#4A90E2;stop-opacity:1" />
      <stop offset="100%" style="stop-color:#357ABD;stop-opacity:1" />
    </linearGradient>
  </defs>
  <circle cx="100" cy="100" r="100" fill="url(#maleGradient)"/>
  <circle cx="100" cy="75" r="35" fill="#FCD5B5"/>
  <path d="M 65 65 Q 65 40 100 35 Q 135 40 135 65 Q 135 50 120 45 Q 110 42 100 42 Q 90 42 80 45 Q 65 50 65 65 Z" fill="#4A3C2E"/>
  <circle cx="88" cy="72" r="3" fill="#2C1810"/>
  <circle cx="112" cy="72" r="3" fill="#2C1810"/>
  <path d="M 82 65 Q 88 63 94 65" stroke="#4A3C2E" stroke-width="2" fill="none" stroke-linecap="round"/>
  <path d="M 106 65 Q 112 63 118 65" stroke="#4A3C2E" stroke-width="2" fill="none" stroke-linecap="round"/>
  <path d="M 100 78 L 98 86 L 102 86" stroke="#D4A574" stroke-width="1.5" fill="none" stroke-linecap="round"/>
  <path d="M 92 92 Q 100 96 108 92" stroke="#D4A574" stroke-width="2" fill="none" stroke-linecap="round"/>
  <rect x="90" y="105" width="20" height="15" fill="#FCD5B5"/>
  <path d="M 60 200 L 70 120 Q 100 115 130 120 L 140 200 Z" fill="#4A90E2"/>
  <path d="M 85 120 L 90 130 L 100 125 L 110 130 L 115 120" fill="white" opacity="0.3"/>
</svg>
